<svg id="Capa_1" enable-background="new 0 0 512 512" height="512" viewBox="0 0 512 512" width="512" xmlns="http://www.w3.org/2000/svg"><g><path d="m299.197 299.07-120.127 120.127c-23.784 23.784-62.483 23.784-86.267 0l-47.73 5.303-5.303 47.73c53.026 53.026 139.307 53.026 192.333 0l120.127-120.127z" fill="#3b88f5"/><path d="m39.77 279.897c-53.026 53.026-53.026 139.307 0 192.333l53.033-53.033c-23.784-23.784-23.784-62.483 0-86.267l120.127-120.127-53.033-53.033z" fill="#28abfa"/><path d="m472.23 39.77-47.73 5.304-5.304 47.73c23.784 23.784 23.784 62.483 0 86.267l-120 120c-23.784 23.784-62.483 23.784-86.267 0l-47.73 5.303-5.303 47.73c53.026 53.026 139.307 53.026 192.333 0l120-120c53.027-53.027 53.028-139.308.001-192.334z" fill="#28abfa"/><path d="m159.897 159.77c-53.026 53.026-53.026 139.307 0 192.333l53.033-53.033c-23.784-23.784-23.784-62.483 0-86.267l60-60 1.768-54.801-54.801 1.768z" fill="#4fdbff"/><path d="m419.197 92.803 53.033-53.033c-53.026-53.026-139.307-53.026-192.333 0l-60 60 53.033 53.033 60-60c23.784-23.784 62.483-23.784 86.267 0z" fill="#14cfff"/></g></svg>