<?xml version="1.0" encoding="iso-8859-1"?>
<!-- Generator: Adobe Illustrator 19.0.0, SVG Export Plug-In . SVG Version: 6.00 Build 0)  -->
<svg version="1.1" id="Capa_1" xmlns="http://www.w3.org/2000/svg" xmlns:xlink="http://www.w3.org/1999/xlink" x="0px" y="0px"
	 viewBox="0 0 512.004 512.004" style="enable-background:new 0 0 512.004 512.004;" xml:space="preserve">
<path style="fill:#546E7A;" d="M288.037,352.004c-5.891,0-10.667-4.776-10.667-10.667c0-5.312-6.592-10.667-21.333-10.667
	c-14.741,0-21.333,5.355-21.333,10.667c0,5.891-4.776,10.667-10.667,10.667c-5.891,0-10.667-4.776-10.667-10.667
	c0-15.936,13.205-32,42.667-32c29.461,0,42.667,16.064,42.667,32C298.703,347.229,293.928,352.004,288.037,352.004z"/>
<path style="fill:#607D8B;" d="M32.037,256.004c-5.891-0.002-10.665-4.78-10.663-10.671c0.001-2.049,0.592-4.055,1.703-5.777
	l85.163-132.48c14.13-21.983,43.405-28.35,65.388-14.22c7.158,4.601,12.942,11.046,16.745,18.658l21.867,43.733
	c2.633,5.272,0.494,11.681-4.779,14.315c-5.272,2.633-11.681,0.494-14.315-4.779l0,0l-21.845-43.733
	c-7.425-12.896-23.898-17.331-36.794-9.906c-3.268,1.881-6.104,4.428-8.326,7.474L40.997,251.119
	C39.033,254.163,35.659,256.003,32.037,256.004z"/>
<path style="fill:#455A64;" d="M505.231,278.063c-38.895-14.025-79.852-21.48-121.195-22.059c-32.529,0.601-64.825,5.625-96,14.933
	c-10.411,3.257-21.137,5.402-32,6.4c-10.863-0.998-21.589-3.143-32-6.4c-31.175-9.309-63.471-14.333-96-14.933
	c-41.342,0.579-82.3,8.033-121.195,22.059c-5.499,2.114-8.243,8.285-6.129,13.784c1.51,3.929,5.19,6.602,9.393,6.824
	c3.052-0.126,6.011,1.063,8.128,3.264c6.016,6.827,4.672,25.109,3.797,37.184c-0.341,4.821-0.661,9.237-0.661,12.8
	c0,27.819,22.464,74.752,106.667,74.752c66.133,0,90.517-35.051,99.157-55.915c9.859-24.921,9.452-52.732-1.131-77.355
	c19.52,6.127,40.448,6.127,59.968,0c-10.583,24.623-10.989,52.433-1.131,77.355c8.619,20.864,33.003,55.915,99.136,55.915
	c84.203,0,106.667-46.933,106.667-74.667c0-3.669-0.32-8.085-0.661-12.8c-0.896-12.075-2.133-30.357,3.797-37.184
	c2.102-2.233,5.063-3.453,8.128-3.349c5.881-0.348,10.366-5.398,10.018-11.278c-0.246-4.16-2.892-7.795-6.775-9.308L505.231,278.063
	z"/>
<path style="fill:#607D8B;" d="M480.037,256.004c-3.63,0.006-7.014-1.835-8.981-4.885l-85.163-132.501
	c-7.75-12.078-23.824-15.587-35.902-7.837c-3.942,2.53-7.127,6.078-9.218,10.269l-21.867,43.733
	c-2.633,5.272-9.042,7.412-14.315,4.779s-7.412-9.042-4.779-14.315l21.867-43.733c11.679-23.378,40.098-32.861,63.476-21.182
	c7.612,3.803,14.057,9.587,18.658,16.745l85.184,132.501c3.181,4.958,1.741,11.557-3.218,14.738
	C484.065,255.415,482.073,256.001,480.037,256.004z"/>
<g>
</g>
<g>
</g>
<g>
</g>
<g>
</g>
<g>
</g>
<g>
</g>
<g>
</g>
<g>
</g>
<g>
</g>
<g>
</g>
<g>
</g>
<g>
</g>
<g>
</g>
<g>
</g>
<g>
</g>
</svg>
